<svg xmlns="http://www.w3.org/2000/svg" xmlns:xlink="http://www.w3.org/1999/xlink" id="icon" width="500" height="500" viewBox="0 0 500 500"><metadata><?xpacket begin="﻿" id="W5M0MpCehiHzreSzNTczkc9d"?><x:xmpmeta xmlns:x="adobe:ns:meta/" x:xmptk="Adobe XMP Core 5.6-c138 79.159824, 2016/09/14-01:09:01"><rdf:RDF xmlns:rdf="http://www.w3.org/1999/02/22-rdf-syntax-ns#"><rdf:Description/></rdf:RDF></x:xmpmeta><?xpacket end="w"?></metadata><defs><style>.cls-1{fill:#002121}.cls-2,.cls-3{fill:#fff}.cls-2{fill-rule:evenodd;filter:url(#filter)}.cls-3{font-size:48px;filter:url(#filter-2);text-anchor:middle;font-family:Roboto;font-weight:500}</style><filter id="filter" width="231" height="239" x="147" y="86" filterUnits="userSpaceOnUse"><feOffset dx="10" dy="17.321" in="SourceAlpha" result="offset"/><feGaussianBlur result="blur" stdDeviation="4.472"/><feFlood flood-opacity=".2" result="flood"/><feComposite in2="blur" operator="in" result="composite"/><feBlend in="SourceGraphic" result="blend"/></filter><filter id="filter-2" width="415" height="144" x="55" y="337" filterUnits="userSpaceOnUse"><feOffset dx="10" dy="17.321" in="SourceAlpha" result="offset"/><feGaussianBlur result="blur" stdDeviation="4.472"/><feFlood flood-opacity=".2" result="flood"/><feComposite in2="blur" operator="in" result="composite"/><feBlend in="SourceGraphic" result="blend"/></filter></defs><rect width="500" height="503" y="-3" class="cls-1"/><path d="M346.925,139.755l-39.29-49.786A5.118,5.118,0,0,0,303.607,88H200.432a5.12,5.12,0,0,0-4.028,1.969l-39.29,49.786A5.008,5.008,0,0,0,156,142.923v139.94A5.155,5.155,0,0,0,161.142,288H342.855A5.154,5.154,0,0,0,348,282.863V142.923A4.734,4.734,0,0,0,346.925,139.755Zm-13.968-1.113h-75.8V98.274h43.961ZM202.917,98.274h43.961v40.368h-75.8ZM166.283,277.726V148.916h171.43v128.81H166.283ZM276.4,190.269l-34.448,34.418-14.311-14.3a5.148,5.148,0,0,0-7.284,7.277L238.309,235.6a5.161,5.161,0,0,0,3.642,1.5,5.236,5.236,0,0,0,3.641-1.5l38.048-38.014a5.137,5.137,0,0,0,0-7.277A5.06,5.06,0,0,0,276.4,190.269Z" class="cls-2"/><text id="Shipping_Address_Management" x="258.022" y="375.521" class="cls-3" data-name="Shipping Address Management">Shipping Address <tspan x="258.022" dy="57.6">Management</tspan></text></svg>