<svg xmlns="http://www.w3.org/2000/svg" xmlns:xlink="http://www.w3.org/1999/xlink" id="icon" width="500" height="500" viewBox="0 0 500 500"><metadata><?xpacket begin="﻿" id="W5M0MpCehiHzreSzNTczkc9d"?><x:xmpmeta xmlns:x="adobe:ns:meta/" x:xmptk="Adobe XMP Core 5.6-c138 79.159824, 2016/09/14-01:09:01"><rdf:RDF xmlns:rdf="http://www.w3.org/1999/02/22-rdf-syntax-ns#"><rdf:Description/></rdf:RDF></x:xmpmeta><?xpacket end="w"?></metadata><defs><style>.cls-1{fill:#002121}.cls-2{font-size:43px;filter:url(#filter);text-anchor:middle;font-family:Roboto;font-weight:500;fill:#fff}.cls-3{fill:#fff;fill-rule:evenodd;filter:url(#filter-2)}</style><filter id="filter" width="216" height="73" x="152" y="383" filterUnits="userSpaceOnUse"><feOffset dx="10" dy="17.321" in="SourceAlpha" result="offset"/><feGaussianBlur result="blur" stdDeviation="4.472"/><feFlood flood-opacity=".2" result="flood"/><feComposite in2="blur" operator="in" result="composite"/><feBlend in="SourceGraphic" result="blend"/></filter><filter id="filter-2" width="227" height="276" x="147" y="80" filterUnits="userSpaceOnUse"><feOffset dx="10" dy="17.321" in="SourceAlpha" result="offset"/><feGaussianBlur result="blur" stdDeviation="4.472"/><feFlood flood-opacity=".2" result="flood"/><feComposite in2="blur" operator="in" result="composite"/><feBlend in="SourceGraphic" result="blend"/></filter></defs><rect width="500" height="503" y="-3" class="cls-1"/><text id="Wish_List" x="250.022" y="418.522" class="cls-2" data-name="Wish List">Wish List</text><path id="Forma_1" d="M156,82V319H344V82H156ZM330.176,305.113H169.824V95.887H330.176V305.113Zm-41.47-89.338h13.823v13.887H288.706V215.775Zm-91.235,0h63.588v13.887H197.471V215.775Zm91.235,27.774h13.823v13.887H288.706V243.549Zm-91.235,0h63.588v13.887H197.471V243.549Zm91.235,27.773h13.823v13.887H288.706V271.322Zm-91.235,0h63.588v13.887H197.471V271.322ZM270.735,110.7A29.764,29.764,0,0,0,250,119.059a29.935,29.935,0,0,0-50.686,21.728c0,35.842,45.631,59.374,47.573,60.358L250,202.722l3.113-1.577c1.942-.984,47.573-24.516,47.573-60.358A30.054,30.054,0,0,0,270.735,110.7Zm-20.742,76.315a116.127,116.127,0,0,1-17.35-12.4c-8.9-7.759-19.506-19.926-19.506-33.828a16.115,16.115,0,0,1,30.481-7.387l1.929,3.771h8.906l1.929-3.771a16.115,16.115,0,0,1,30.481,7.387C286.863,163.518,259.4,181.518,249.993,187.014Z" class="cls-3" data-name="Forma 1"/></svg>