<svg xmlns="http://www.w3.org/2000/svg" xmlns:xlink="http://www.w3.org/1999/xlink" id="icon" width="500" height="500" viewBox="0 0 500 500"><metadata><?xpacket begin="﻿" id="W5M0MpCehiHzreSzNTczkc9d"?><x:xmpmeta xmlns:x="adobe:ns:meta/" x:xmptk="Adobe XMP Core 5.6-c138 79.159824, 2016/09/14-01:09:01"><rdf:RDF xmlns:rdf="http://www.w3.org/1999/02/22-rdf-syntax-ns#"><rdf:Description/></rdf:RDF></x:xmpmeta><?xpacket end="w"?></metadata><defs><style>.cls-1{fill:#002121}.cls-2{font-size:48px;filter:url(#filter);text-anchor:middle;font-family:Roboto;font-weight:500;fill:#fff}.cls-3{fill:#fff;fill-rule:evenodd;filter:url(#filter-2)}</style><filter id="filter" width="391" height="144" x="65" y="341" filterUnits="userSpaceOnUse"><feOffset dx="10" dy="17.321" in="SourceAlpha" result="offset"/><feGaussianBlur result="blur" stdDeviation="4.472"/><feFlood flood-opacity=".2" result="flood"/><feComposite in2="blur" operator="in" result="composite"/><feBlend in="SourceGraphic" result="blend"/></filter><filter id="filter-2" width="216" height="236" x="153" y="92" filterUnits="userSpaceOnUse"><feOffset dx="10" dy="17.321" in="SourceAlpha" result="offset"/><feGaussianBlur result="blur" stdDeviation="4.472"/><feFlood flood-opacity=".2" result="flood"/><feComposite in2="blur" operator="in" result="composite"/><feBlend in="SourceGraphic" result="blend"/></filter></defs><rect width="500" height="503" y="-3" class="cls-1"/><text id="About_Contact_Pages" x="251.022" y="379.522" class="cls-2" data-name="About &amp; Contact Pages">About &amp; Contact<tspan x="251.022" dy="57.6">Pages</tspan></text><path id="Forma_1" d="M271.862,155.266A17.934,17.934,0,1,1,253.9,173.2,17.947,17.947,0,0,1,271.862,155.266Zm32.552,74.468a32.552,32.552,0,0,0-65.1,0h65.1ZM172.172,94v46.2h-9.155v12.189h9.155v34.013H162V198.6h10.172v34.013H162V244.8h10.172V291H339V94H172.172Zm12.207,150.8h10.173V232.608H184.379V198.6h10.173v-12.19H184.379V152.392h10.173V140.2H184.379V106.189h20.345V278.811H184.379V244.8Zm142.414,34.014H216.931V106.189H326.793V278.811Z" class="cls-3" data-name="Forma 1"/></svg>