<svg xmlns="http://www.w3.org/2000/svg" xmlns:xlink="http://www.w3.org/1999/xlink" id="icon" width="500" height="500" viewBox="0 0 500 500"><metadata><?xpacket begin="﻿" id="W5M0MpCehiHzreSzNTczkc9d"?><x:xmpmeta xmlns:x="adobe:ns:meta/" x:xmptk="Adobe XMP Core 5.6-c138 79.159824, 2016/09/14-01:09:01"><rdf:RDF xmlns:rdf="http://www.w3.org/1999/02/22-rdf-syntax-ns#"><rdf:Description/></rdf:RDF></x:xmpmeta><?xpacket end="w"?></metadata><defs><style>.cls-1{fill:#002121;filter:url(#filter)}.cls-2{font-size:43px;filter:url(#filter-2);text-anchor:middle;font-family:Roboto;font-weight:500;fill:#fff}.cls-3{fill:#fff;fill-rule:evenodd;filter:url(#filter-3)}</style><filter id="filter" width="539" height="542" x="-9" y="-5" filterUnits="userSpaceOnUse"><feOffset dx="10" dy="17.321" in="SourceAlpha" result="offset"/><feGaussianBlur result="blur" stdDeviation="4.472"/><feFlood flood-opacity=".2" result="flood"/><feComposite in2="blur" operator="in" result="composite"/><feBlend in="SourceGraphic" result="blend"/></filter><filter id="filter-2" width="226" height="73" x="147" y="386" filterUnits="userSpaceOnUse"><feOffset dx="10" dy="17.321" in="SourceAlpha" result="offset"/><feGaussianBlur result="blur" stdDeviation="4.472"/><feFlood flood-opacity=".2" result="flood"/><feComposite in2="blur" operator="in" result="composite"/><feBlend in="SourceGraphic" result="blend"/></filter><filter id="filter-3" width="212" height="239" x="155" y="102" filterUnits="userSpaceOnUse"><feOffset dx="10" dy="17.321" in="SourceAlpha" result="offset"/><feGaussianBlur result="blur" stdDeviation="4.472"/><feFlood flood-opacity=".2" result="flood"/><feComposite in2="blur" operator="in" result="composite"/><feBlend in="SourceGraphic" result="blend"/></filter></defs><rect width="500" height="503" y="-3" class="cls-1"/><text id="Platforms" x="249.021" y="421.522" class="cls-2">Platforms</text><path id="Forma_1" d="M176.62,169.787H176.1a12.013,12.013,0,0,0-12.085,11.868v51.657A12.007,12.007,0,0,0,176.1,245.189h0.525a12.013,12.013,0,0,0,12.085-11.877V181.655A12.019,12.019,0,0,0,176.62,169.787Zm17.877,83.46a11.027,11.027,0,0,0,11.113,10.889h11.874v27.9a12.016,12.016,0,0,0,12.093,11.886h0.516A12.026,12.026,0,0,0,242.2,292.039v-27.9H258.8v27.9a12.031,12.031,0,0,0,12.11,11.886h0.508a12.017,12.017,0,0,0,12.1-11.886v-27.9H295.4a11.024,11.024,0,0,0,11.1-10.889V171.683h-112v81.564Zm83.894-131.026,9.43-14.288a1.937,1.937,0,0,0-.592-2.718,2.012,2.012,0,0,0-2.774.577l-9.776,14.782a65.787,65.787,0,0,0-48.366,0l-9.759-14.782a2.021,2.021,0,0,0-2.783-.577,1.944,1.944,0,0,0-.592,2.718l9.438,14.288c-17.016,8.184-28.492,23.608-28.492,41.3,0,1.087.068,2.158,0.161,3.22H306.722c0.093-1.062.153-2.133,0.153-3.22C306.883,145.829,295.4,130.405,278.391,122.221ZM224.435,147.8a5.3,5.3,0,1,1,5.413-5.3A5.353,5.353,0,0,1,224.435,147.8Zm52.13,0a5.3,5.3,0,1,1,5.4-5.3A5.353,5.353,0,0,1,276.565,147.8ZM324.9,169.787h-0.507a12.035,12.035,0,0,0-12.11,11.868v51.657a12.03,12.03,0,0,0,12.11,11.877H324.9a12.015,12.015,0,0,0,12.094-11.877V181.655A12.021,12.021,0,0,0,324.9,169.787Z" class="cls-3" data-name="Forma 1"/></svg>